<svg xmlns="http://www.w3.org/2000/svg" viewBox="0 0 48 60" x="0px" y="0px"><title>-,</title><g><path d="M44.84,35.5l-6.195-17.81A4,4,0,0,0,34.867,15H34V5a2,2,0,0,0-2-2H16a2,2,0,0,0-2,2V15h-.867a4,4,0,0,0-3.778,2.687L3.16,35.5a5.742,5.742,0,0,0,5.429,7.637,5.852,5.852,0,0,0,2.62-.62,5.755,5.755,0,0,0,2.361-2.187l3.305-5.508A3.953,3.953,0,0,0,18,35a4,4,0,0,0,3.858-3h4.284A4,4,0,0,0,30,35a3.953,3.953,0,0,0,1.125-.181l3.305,5.508A5.768,5.768,0,0,0,44.84,35.5ZM14,21a1,1,0,0,1,2,0v1h1a1,1,0,0,1,0,2H16v1a1,1,0,0,1-2,0V24H13a1,1,0,0,1,0-2h1Zm18,2a1,1,0,1,1-1-1A1,1,0,0,1,32,23Zm1,3a1,1,0,1,1,1-1A1,1,0,0,1,33,26Zm0-4a1,1,0,1,1,1-1A1,1,0,0,1,33,22Zm2,0a1,1,0,1,1-1,1A1,1,0,0,1,35,22ZM16,5H32V17H25.9a1,1,0,0,0-.844.464l-1.081,1.7-1.147-1.721A1,1,0,0,0,22,17H16Zm2,28a2,2,0,1,1,2-2A2,2,0,0,1,18,33Zm10-2a2,2,0,1,1,2,2A2,2,0,0,1,28,31Z"/><path d="M24,14a1,1,0,0,0,1-1V9a1,1,0,0,0-2,0v4A1,1,0,0,0,24,14Z"/><path d="M27,13a1,1,0,0,0,1-1V10a1,1,0,0,0-2,0v2A1,1,0,0,0,27,13Z"/><path d="M21,13a1,1,0,0,0,1-1V10a1,1,0,0,0-2,0v2A1,1,0,0,0,21,13Z"/></g></svg>